<svg xmlns="http://www.w3.org/2000/svg" width="200" height="43" viewBox="0 0 200 43">
    <path fill="#131415" d="M134.409.092v20.272l-.29-1.229-.302-1.239-.484-1.136-.494-1.024-.506-.952-.591-.942-.699-.86-.796-.758-.795-.757-.893-.563-1-.666-1.075-.47-1.194-.38-1.193-.286-1.398-.185-1.484-.102h-1.495l-1.397.195-1.29.184-1.194.379-1.194.378-1.075.471-.99.574-.892.665-.935.625-.796.757-.688.85-.7.85-.494.952-.602 1.024-.398 1.024-.3 1.136-.323-1.474-.592-1.515-.602-1.424-.839-1.156-.892-1.137-.99-1.024-1.193-.757-1.344-.83-.796-.184-.795-.287-.893-.184-.99-.102h-1.902l-.893.102-.903.184-.688.195-.742.276-.7.38-.59.378-1 .86-.893.942-.043.164-.204.092V9.47h-4.226l-4.086.092v9l-.398-1.608-.591-1.423-.602-1.32-.796-1.24-.99-1.136-1.075-.942-1.215-.757-1.387-.666-.796-.184-.838-.287-.893-.092-.903-.102H67.43l-.763.102-.893.184-.699.195-.699.276-.591.38-.602.378-1.075.86-.796.942-.097.194-.097.093h-.15V9.47h-8.28v9.092l-.075 15.224-.204-.656-.194-.757-.204-1.618V16.668l-.194-1.229-.204-1.106-.398-1.023-.495-.942-.698-.758-.689-.665-.946-.533-.892-.47-1.387-.472-1.549-.256-1.699-.307-1.785-.102H39.28l-1.785.102-1.689.184-1.59.287-1.399.471-1.29.563-1.194.768-1 .85-.398.47-.397.574-.398.563-.29.696-.205.666-.193.655-.108.758-.097.86h8.054l.301-.952.398-.758.301-.287.301-.276.398-.287.398-.194.99-.277 1.074-.102 1.076.102 1.075.184.903.38.398.286.29.287.205.378.193.38.108.47v.563l-.108.481-.193.471-.301.287-.398.277-.398.194-.495.092-1 .195-2.15.379-2.15.276-1.689.194-1.495.349-1.484.378-1.397.471-1.194.666-.591.379-.506.378-.398.471-.397.471-.388.574-.3.563H18.72v.102l-.3 1.024-.302.86-.494.85-.7.563-.892.481-.989.379-.602.092h-1.215l-.592-.092-.505-.195-.495-.184-.795-.481-.7-.655-.462-.748-.494-.952-.301-.942-.194-1.024V21.03l.194-1.423.365-1.177.205-.666.29-.47.398-.482.398-.471.397-.379.506-.286.591-.185.7-.194.698-.185h1.387l.495.185.602.102.398.277.796.48.397.277.301.379.194.379.204.481.194.563.097.573h8.387l-.226-1.402-.301-1.137-.398-1.136-.495-.942-.73-.88-.7-.85-.795-.666-.796-.655-.936-.532-1-.563-1.075-.38-1.193-.378-1.302-.287-1.29-.194-1.494-.092-1.484.092-1.398.102-1.323.307-1.193.287-1.076.47-.989.472-1 .573-.892.666-.796.757-.699.758-.688.758-.602.941-.495.953-.505 1.023L.602 18l-.3 1.228-.205 1.25L0 21.878l.097 1.32.107 1.372.194 1.229.3 1.136.496 1.137.494.952.602.942.592.85.795.757.796.758.796.665 1 .574.99.47 1 .472 1.193.297 1.29.286 1.387.184 1.398.103 1.387-.103 1.398-.092 1.29-.286 1.194-.277 1.075-.379.892-.48.893-.472.796-.47.795-.666.7-.563.59-.758.603-.757.494-.758.205-.481.3-.471.194 1.423.194.665.301.563.204.574.398.563.398.47.398.482.99.758 1.074.563 1.29.47 1.495.287 1.592.195 1.688-.103 1.591-.184 1.398-.286 1.194-.471 1.075-.574 1-.563.892-.757.097-.093h.108l.193 1.137.301 1.136h8.355V43h8.602v-5.498l.108-5.59.097.103.096.184.893.85 1 .86 1.193.655 1.29.481.893.184.796.092.903.103.893-.103h.892l.893-.184.795-.194.7-.185L74 34.185l1.269-.758.99-.85.892-1.023.795-1.137.7-1.228.494-1.32.494-1.424L79.57 43h8.602v-5.498l.097-5.59.204.103.097.184.892.952 1 .758.592.378.591.277.7.286.698.195.892.184.904.092.892.103.893-.103.989-.092.796-.092.903-.194.688-.277 1.398-.665 1.193-.758.99-.952.903-1.136.796-1.229.591-1.32.58-1.424.398-1.515.302 1.024.397 1.024.495.952.505.85.495.85.699.757.688.757.796.666.796.573.903.471.989.471 1 .379 1.194.379 1.075.194 1.3.185 1.291.092 1.387.102 1.301-.102 1.29-.092 1.194-.287 1.194-.277 1.075-.378 1-.38.893-.48.892-.563.796-.666.699-.665.699-.758.59-.85.506-.85.398-.952.29-1.023h-8.053l-.398.757-.592.563-.698.574-.796.378-.99.277-1 .194h-1.193l-1.075-.194-.893-.379-.795-.379-.7-.563-.666-.655-.398-.666-.398-.942-.204-.952-.097-1.023 19.29.092-.096 10.514h8.602V17.261l.183-17.169L134.409 0v.092zM43.656 24.817l-.097.85-.193.85-.205.85-.3.665-.399.665-.494.563-.592.38-.699.286-.892.287-.903.092h-.893l-.892-.092-.796-.287-.699-.471-.3-.287-.194-.286-.302-.758v-1.229l.097-.378.398-.666.505-.563.592-.379.699-.286.795-.287.796-.184 1.688-.38 1.689-.286.903-.286.688-.277v1.894zm27.753-3.071v1.413l-.301 1.412-.302 1.137-.494 1.024-.301.47-.398.472-.398.378-.398.38-.494.286-.592.184-.602.103-.591.092h-.796l-.699-.092-.602-.103-.495-.235-.505-.256-.495-.38-.387-.388-.3-.471-.302-.471-.301-.481L61.29 25l-.193-1.32v-2.468l.097-1.023.204-.942.193-.85.398-.758.495-.665.505-.666.688-.47.506-.287.591-.185.602-.194.689-.092h.698l.7.092.59.194.603.277.495.286.397.38.398.378.301.471.495.952.398 1.137.3 1.228-.031 1.27zm27.043.47l-.097 1.024-.194.942-.204.953-.301.85-.398.757-.688.85-.398.378-.398.38-.494.286-.603.184-.591.103-.699.092h-.699l-.699-.092-.591-.133-.602-.185-.473-.286-.398-.38-.398-.378-.28-.379-.333-.563-.204-.47-.398-1.137-.14-1.331-.107-1.423v-1.423l.107-1.321.44-1.085.496-1.024.494-.666.602-.563.7-.481.784-.276.7-.195.698-.092 1 .092.99.195.795.378.699.471.495.666.494.757.29.738.302.85.193.941.097 1.024.01.973zm16.602-2.702l.3-1.024.302-.85.495-.86.494-.757.7-.656.795-.48.989-.277 1.075-.195.592-.092.602.092.591.092.506.195.494.287.495.184.699.665.591.758.506.85.29.952.204 1.136-10.72-.02zM144.183 0h8.505l-.097 34.81h-8.505L144.183 0zm9.677 0h8.506v6.143h-8.603V0h.097zM200 0v6.143l-8.602-.092V0H200zm-9.677 18.695v.123l-.086 1.935V34.81h-8.796V19.35l-.065-.88v-.43l-.107-.564v-.153l-.15-.41v-.112l-.248-.45-.301-.38-.409-.378-.505-.277-.602-.184-.602-.195h-2.15l-.71.195-.506.184-.269.154-.236.123-.506.378-.258.328v.051l-.14.123-.258.246-.107.235-.097.236-.247.553-.258.573-.108.563-.097.655-.096 1.31.096 1.506v.174l-.096 12.286h-8.968v-1.024l.097-24.94h8.505l.065 2.14v1.33l.107-.092.097-.092.075-.133v-.061l.613-.748.527-.491.183-.164.193-.133.613-.43.753-.44h.054l1.01-.471 1.022-.39.193-.071h.119l1.193-.256 1.301-.154h1.27l1.074.093 1.011.184.914.194 1.312.471 1.075.656.742.542.269.205.161.205.549.737.71 1.024.408 1.218.301 1.413.204 1.403.162 2.16zm-36.366-9.48h8.409v12.889l-.097 12.706h-8.506l.097-25.504.097-.092zm37.538 0H200V34.81h-8.602l.097-25.596z"/>
</svg>
