<svg xmlns="http://www.w3.org/2000/svg" width="112" height="50" viewBox="0 0 112 50">
    <path fill="#FFF" d="M45.945 17l.332.002 3.243.02.24.28c.2.23.24.391.24.913 0 .681-.19 1.012-.63 1.112-.12.03-1.772.06-3.674.08-3.784.03-4.004.06-4.905.662-.9.592-.84.21-.9 6.597l-.05 5.645-.32.32c-.271.271-.411.321-.902.361-.74.05-1.26-.15-1.481-.571-.14-.28-.15-.952-.13-6.056l.03-5.734.23-.582c.63-1.554 2.302-2.576 4.795-2.927.68-.09 1.951-.13 4.214-.12zm-33.307.096c1.12-.121 9.726-.131 10.707-.01 2.347.294 3.922 1.247 4.447 2.697.188.506.208.78.208 3.273v2.717l-.238.263c-.128.142-.406.305-.614.365-.24.067-2.733.106-7.696.111H9.875v1.177c0 1.338.138 1.733.743 2.159.97.679 2.357.82 7.893.82h.302c2.665.003 3.914.034 4.076.112.624.294.713 1.47.149 1.967L22.73 33h-5.306c-4.321-.008-5.359-.09-6.63-.466-2.129-.629-3.327-1.764-3.684-3.467-.148-.72-.148-7.42 0-8.15.446-2.138 2.378-3.486 5.527-3.82zm46.063-.006c1.053-.122 10.037-.122 10.395.01.654.223.869 1.43.347 1.958-.214.212-.286.212-5.355.273-5.785.061-5.98.081-6.582.74-.327.356-.338.386-.338 1.299 0 1.176.164 1.5.95 1.856.86.385 1.83.456 6.563.456 3.567 0 4.589.03 5.273.162 1.963.355 2.985.984 3.629 2.19.5.974.562 3.135.122 4.341-.296.802-1.226 1.694-2.156 2.06-1.41.557-1.799.587-9.771.557l-7.287-.03-.246-.284c-.194-.224-.245-.396-.245-.842 0-.487.04-.609.296-.862l.297-.294h7.515c3.676-.006 6.47-.054 6.855-.102.9-.132 1.472-.446 1.778-.963.205-.365.225-.517.205-1.39-.02-.8-.072-1.034-.246-1.267-.275-.375-.98-.72-1.737-.842-.327-.06-2.606-.101-5.049-.101h-.644c-2.881-.006-4.072-.048-4.701-.142-2.382-.386-3.71-1.268-4.211-2.78-.256-.76-.184-3.031.112-3.67.573-1.238 2.116-2.08 4.231-2.333zm30.48-.011c.138-.072 1.942-.092 5.679-.072 4.87.02 5.55.051 6.161.204 2.16.568 3.53 1.857 3.894 3.654.07.356.099 1.91.079 4.59-.03 3.99-.03 4.06-.266 4.66-.168.446-.394.771-.838 1.218-.67.68-1.37 1.076-2.504 1.4-.73.204-.966.214-6.773.255-4.803.029-6.066.012-6.908-.105l-.12-.017c-2.347-.366-3.816-1.29-4.358-2.762-.177-.487-.227-.812-.227-1.716-.01-1.604.257-2.416 1.045-3.167.67-.64 1.46-1.015 2.78-1.32.592-.142 1.794-.173 8.084-.223l7.394-.061.03-.802c.049-1.249-.11-1.818-.651-2.396-.552-.579-1.223-.863-2.406-1.016-.453-.05-2.82-.101-5.432-.101h-4.613l-.237-.254c-.453-.457-.335-1.695.187-1.97zm13.19 9.025l-7.127.01c-7.334.01-7.817.03-8.517.417-.631.345-.789.629-.828 1.512-.04.995.01 1.208.394 1.655.394.467 1.163.751 2.346.873 1.34.132 9.967.132 10.923-.01.996-.142 1.617-.426 2.06-.924.543-.619.661-.995.71-2.345l.04-1.188zM22.91 19.428c-.881-.132-8.835-.132-9.914 0-1.446.162-2.377.567-2.863 1.236-.188.254-.208.456-.237 1.805l-.03 1.51h15.372l-.03-1.602c-.03-1.58-.03-1.611-.307-1.976-.376-.507-1.06-.841-1.99-.973z"/>
</svg>
