<svg xmlns="http://www.w3.org/2000/svg" width="23" height="12" viewBox="0 0 23 12">
    <path fill="#CCC4C4" d="M9.803 11.97c-.247.003-1.317-.064-1.65-.099-.51-.059-.934-.123-1.367-.373V10.04c.44-.109.932-.193 1.347-.208.45-.025 1.96-.028 2.36-.025.74.03 1.009-.256 1.035-.694.019-.254.011-.503.003-.755-.009-.366-.298-.579-.805-.68-.662-.11-2.475-.41-3.266-.731-.254-.097-.496-.218-.716-.384-.476-.38-.858-.902-.824-2.129.147-1.494.242-2.218.787-3.104C7.103.75 7.777.052 9.255 0c.248 0 1.473.022 1.57.033 2.484.182 3.287 2.065 3.298 3.244.018.326.083 4.456.086 5.09 0 .19.034 1.103-.212 1.734-.278.835-1.042 1.766-2.563 1.853-.194.024-1.298.02-1.631.015zm1.716-6.12c.004-.936.018-2.172-.025-2.582-.017-.276-.1-.894-.71-1.088-.131-.042-1.09-.078-1.222-.05-.452.109-.692.462-.8 1.002-.065.37-.124.86-.09 1.26.01.427.229.73.504.808.192.053 1.056.212 1.29.267.36.084.723.169 1.053.384zM0 6.055c.206-.064.734-.164 1.124-.198 1.1-.105 2.216-.046 2.965.019.54.06 1.11.115 1.592.409v1.649c-.59.15-.93.183-1.379.212-.522.05-1.856.046-2.887-.055C.976 8.034.552 8.02 0 7.725v-1.67zm18.592 5.943c-.246.003-1.317-.064-1.65-.098-.51-.06-.933-.124-1.367-.374v-1.458c.441-.108.932-.193 1.347-.208.45-.024 1.961-.027 2.36-.024.74.029 1.01-.256 1.035-.694.02-.255.012-.504.003-.755-.008-.367-.298-.58-.805-.681-.661-.11-2.475-.41-3.266-.73-.253-.098-.496-.219-.716-.384-.476-.38-.858-.903-.823-2.13.146-1.493.241-2.218.786-3.103.396-.581 1.07-1.278 2.548-1.33.248 0 1.474.021 1.57.033 2.484.182 3.287 2.065 3.299 3.244.017.325.082 4.456.085 5.09 0 .189.035 1.102-.211 1.734-.279.835-1.043 1.765-2.564 1.852-.194.024-1.297.02-1.63.016zm1.717-6.119c.003-.937.018-2.173-.026-2.582-.017-.276-.099-.894-.709-1.089-.132-.041-1.09-.078-1.223-.05-.452.109-.691.462-.8 1.003-.065.37-.123.859-.09 1.259.01.427.23.73.504.808.192.054 1.056.213 1.29.267.361.084.723.17 1.054.384z"/>
</svg>
